<svg t="1719225644291" class="icon" viewBox="0 0 1024 1024" version="1.1" xmlns="http://www.w3.org/2000/svg" p-id="4629" width="200" height="200"><path d="M511.238 1017.003c-8.284 0-15-6.716-15-15V260.217c0-8.284 6.716-15 15-15s15 6.716 15 15v741.785c0 8.285-6.716 15.001-15 15.001z" p-id="4630"></path><path d="M511.238 718.479l-0.147-0.001a14.997 14.997 0 0 1-10.665-4.603l-226.154-235.2c-5.742-5.972-5.556-15.467 0.416-21.209 5.973-5.74 15.467-5.555 21.209 0.416l215.552 224.174 219.86-219.86c5.857-5.857 15.355-5.857 21.213 0 5.858 5.857 5.858 15.355 0 21.213L521.844 714.086a15 15 0 0 1-10.606 4.393z" p-id="4631"></path><path d="M369.129 866.89c-10.71 0-21.847-1.23-33.406-4.121-10.927-2.731-44.176-11.043-48.552-36.306-1.121-6.472-0.089-12.509 2.108-17.938-33.763-5.001-89.364-24.882-157.759-92.665-31.656-15.152-63.256-15.472-63.578-15.473a15.075 15.075 0 0 1-11.268-5.137c-0.313-0.357-7.734-8.9-14.068-19.654-10.404-17.663-12.582-32.399-6.473-43.799 11.207-20.91 41.828-16.883 51.89-15.56 14.003 1.843 28.507 4.96 42.533 7.975 19.145 4.115 37.228 8.003 50.898 8.017h0.08c7.584 0 11.695-1.148 14.007-2.547-8.578-17.38-34.419-63.186-81.609-94.646-28.057-18.704-39.526-37.288-34.092-55.238 5.216-17.225 25.744-26.52 42.412-26.52 5.301 0 12.264-2.55 16.258-4.963-1.152-0.786-2.731-1.734-4.874-2.806-30.415-15.207-41.797-42.361-37.319-61.325 2.145-9.086 7.776-15.922 15.316-19.205-2.473-11.107-11.123-33.289-20.89-52.823a14.972 14.972 0 0 1-0.814-1.965c-1.832-5.497-10.14-33.751 6.304-50.194 10.575-10.575 27.011-12.243 48.854-4.964 26.104 8.701 40.894 17.688 51.691 24.249 12.235 7.435 18.377 11.166 34.027 11.166 19.689 0 29.572 0 38.666 3.031 10.145 3.381 16.194 9.431 26.217 19.454 4.579 4.579 10.278 10.277 15.927 14.714 4.562 3.582 7.491 5.063 9.079 5.673 1.271-2.679 3.665-10.085 3.665-27.872 0-13.875-1.243-27.793-2.445-41.253-2.812-31.479-5.032-56.343 8.858-71.529 6.537-7.147 15.514-10.771 26.679-10.771 18.44 0 25.923 18.827 30.865 31.387 1.696-4.11 3.287-8.938 4.851-13.686 6.834-20.743 17.048-51.736 51.137-53.779 2.282-3.094 8.013-12.899 15.877-40.684 5.211-18.408 8.759-35.616 9.169-37.633 0.345-1.994 2.443-13.645 6.374-25.59 2.709-8.233 10.953-33.288 30.697-34.838 22.701-1.767 35.915 27.849 45.846 57.42 20.511 41.202 24.177 60.394 26.373 71.895 1.536 8.046 1.697 8.887 6.526 13.717 4.31 4.31 11.063 7.687 18.214 11.262 15.253 7.626 35.542 17.772 39.694 43.659 2.848-1.931 5.817-4.057 8.259-5.804 8.34-5.971 16.964-12.144 25.543-16.085 18.003-8.268 28.934-2.849 34.937 3.152 13.655 13.655 10.509 41.233 4.242 85.098-1.996 13.969-4.06 28.413-4.79 40.146-0.875 14.062 0.531 18.788 1.006 19.944 3.508 3.351 5.412 3.24 9.365 1.264 6.869-3.435 15.191-11.757 23.24-19.806 13.439-13.439 31.932-13.439 46.791-13.439 10.761 0 20.925 0 25.578-4.653 9.542-9.542 28.986-24.399 49.129-34.471 11.349-5.675 21.643-9.2 30.595-10.479 16.771-2.396 26.631 3.445 31.951 8.766 4.775 4.774 11.872 15.299 5.752 32.128-2.878 7.914-7.984 15.574-12.924 22.983-3.325 4.987-9.304 13.954-10.169 17.997 3.087 2.984 6.287 5.483 9.39 7.905 7.221 5.638 15.404 12.026 18.562 23.041 3.063 10.684 0.657 22.99-7.8 39.905-4.128 8.255-8.233 15.565-11.855 22.015-13.922 24.793-14.138 27.95-9.048 33.04 3.452 3.451 8.607 6.429 13.594 9.307 9.914 5.724 22.251 12.848 24.148 27.26 1.987 15.096-9.457 28.731-19.649 38.924-5.77 5.77-12.797 12.355-20.236 19.328-13.282 12.448-28.337 26.559-39.831 39.427-11.376 12.737-15.184 19.796-16.458 23.078 2.023 0.527 5.627 1.114 11.642 1.114 74.263 0 96.676 0 119.16 22.486 8.52 8.519 8.765 16.629 7.469 21.932-3.316 13.578-17.548 18.079-34.026 23.29-10.127 3.202-22.731 7.188-27.719 12.176-27.715 27.714-55.878 51.172-83.709 69.725-41.27 27.512-79.246 42.543-113.356 44.926 3.421 8.166 4.715 17.304 0.917 26.472-7.275 17.563-29.437 26.102-67.751 26.102-30.475 0-59.393-10.693-87.358-21.034-24.064-8.898-46.785-17.319-65.927-16.666-14.189 0.473-30.818 7.802-50.073 16.289-26.009 11.462-56.91 25.082-92.536 25.082z m-47.514-88.052c5.703 0 10.986 3.349 13.485 8.795 3.075 6.702 0.624 14.698-5.512 18.788-7.484 5.073-13.236 12.783-12.857 14.922 0.011 0.06 2.944 6.491 26.268 12.322 40.046 10.011 73.862-4.896 106.565-19.311 21.182-9.337 41.188-18.155 61.174-18.821 24.996-0.855 50.426 8.563 77.331 18.512 25.49 9.426 51.848 19.172 76.953 19.172 32.435 0 39.361-6.823 40.004-7.563-0.011-0.8-0.593-7.274-14.426-21.107a15.002 15.002 0 0 1-2.619-17.685 15.007 15.007 0 0 1 16.167-7.631c74.541 14.915 167.186-68.079 203.558-104.448 10.171-10.172 25.96-15.165 39.89-19.57a478.67 478.67 0 0 0 5.944-1.909c-12.591-6.925-32.731-7.194-89.502-7.194-8.146 0-32.938 0-40.47-19.053-9.638-24.377 19.322-54.018 64.603-96.456 7.257-6.802 14.112-13.226 19.538-18.651 7.283-7.284 9.807-11.448 10.669-13.315-1.973-1.643-6.072-4.01-8.955-5.674-6.357-3.671-13.563-7.831-19.807-14.075-10.247-10.247-13.892-22.404-10.832-36.134 2.294-10.296 8.152-20.729 14.936-32.808 3.456-6.155 7.374-13.133 11.18-20.742 6.665-13.332 5.996-17.519 5.795-18.222-0.47-1.638-4.569-4.838-8.186-7.662-3.687-2.879-8.275-6.461-12.893-11.078-4.775-4.775-11.872-15.299-5.752-32.129 2.878-7.914 7.985-15.574 12.924-22.983 3.219-4.827 8.921-13.38 10.069-17.591-2.58-0.565-10.846-0.443-27.065 7.667-16.388 8.193-33.196 20.716-41.331 28.852-13.44 13.439-31.934 13.439-46.792 13.439-10.762 0-20.926 0-25.578 4.652-9.741 9.741-19.813 19.814-31.037 25.426-15.957 7.979-31.745 5.376-44.453-7.333-13.656-13.656-10.509-41.233-4.242-85.097 1.995-13.969 4.059-28.413 4.789-40.146 0.577-9.261 0.164-14.473-0.321-17.282-6.007 2.43-16.516 9.953-22.029 13.899-16.005 11.458-29.83 21.348-43.289 14.432-5.323-2.736-11.67-8.958-11.67-23.06 0-13.636-6.188-17.946-23.872-26.788-8.559-4.28-18.259-9.13-26.011-16.882-10.805-10.805-12.656-18.174-14.781-29.303-1.922-10.064-5.139-26.909-24.213-65.058a14.972 14.972 0 0 1-0.814-1.965c-6.872-20.617-12.213-30.4-15.374-34.922-3.604 6.863-7.822 20.42-9.879 32.655-0.025 0.151-0.055 0.314-0.085 0.465-0.19 0.952-4.741 23.573-11.649 46.6-4.186 13.954-8.405 25.223-12.541 33.494-3.067 6.134-11.214 22.427-26.703 22.427-13.844 0-18.631 10.139-26.253 33.273-4.175 12.673-8.492 25.777-17.418 34.702-8.296 8.298-16.237 8.751-21.445 7.665-12.787-2.662-17.86-15.556-22.337-26.932-1.456-3.7-3.728-9.474-5.533-12.333-0.836 0.145-1.623 0.396-2.018 0.827-0.611 0.669-2.636 3.669-3.011 14.201-0.335 9.423 0.749 21.562 1.896 34.412 1.202 13.457 2.564 28.709 2.564 43.922 0 20.257-2.276 48.131-21.962 56.285a26.675 26.675 0 0 1-10.299 2.054c-17.984 0.002-35.422-17.439-47.623-29.641-8.222-8.222-11.231-11.12-14.49-12.206-4.476-1.492-13.774-1.492-29.18-1.492-24.05 0-35.893-7.196-49.605-15.528-10.113-6.146-22.7-13.793-45.6-21.426-14.186-4.729-18.128-2.311-18.154-2.284-1.868 1.868-1.481 11.501 0.661 18.605 1.844 3.754 8.075 16.653 13.716 30.833 12.953 32.558 12.203 44.736 7.092 53.007-3.06 4.95-7.908 8.105-13.588 8.94 0.009 5.022 4.159 17.299 21.725 26.082 24.477 12.238 24.993 27.36 23.122 35.285-4.891 20.717-33.625 29.315-47.922 29.315-5.653 0-12.469 3.148-13.651 5.146 0.175 0.967 2.18 8.456 21.972 21.651 66.956 44.637 94.896 112.557 96.053 115.427a14.994 14.994 0 0 1 0.122 10.902c-4.446 11.784-15.905 25.823-45.227 25.825l-0.099-0.001c-16.842-0.018-36.432-4.229-57.171-8.687-13.443-2.89-27.344-5.877-40.141-7.561-13.906-1.831-19.583-0.361-21.399 0.367 0.124 4.531 5.776 15.257 12.666 24.365 13.275 0.955 42.375 4.699 71.675 19.348a14.986 14.986 0 0 1 3.898 2.811c52.49 52.49 95.297 73.194 121.965 81.319 27.219 8.294 43.428 5.439 44.815 5.169a14.97 14.97 0 0 1 3.882-0.518z m640.79-118.572c0.001 0.001 0.001 0.001 0 0 0.001 0.001 0.001 0.001 0 0zM141.381 450.764z m571.018-119.013c0 0.001 0.001 0.001 0 0 0.001 0.001 0.001 0.001 0 0z m-68.461-115.086z m46.076-9.888zM484.099 70.251h0.01-0.01z" p-id="4632"></path></svg>